<svg width="24" height="24" viewBox="0 0 24 24" fill="none" xmlns="http://www.w3.org/2000/svg">
<g id="Monotone/104 virus">
<rect id="Vector" x="6" y="6" width="12" height="12" rx="3" stroke="#242E49" stroke-width="2"/>
<path id="Vector_2" d="M12 6V2" stroke="#242E49" stroke-width="2"/>
<path id="Vector_3" d="M12 18V22" stroke="#242E49" stroke-width="2"/>
<path id="Vector_4" d="M6 12L2 12" stroke="#242E49" stroke-width="2"/>
<path id="Vector_5" d="M18 12L22 12" stroke="#242E49" stroke-width="2"/>
<path id="Vector_6" d="M6.75738 6.75738L4 4" stroke="#242E49" stroke-width="2"/>
<path id="Vector_7" d="M17.2426 17.2426L20 20" stroke="#242E49" stroke-width="2"/>
<path id="Vector_8" d="M6.75738 17.2426L4 20" stroke="#242E49" stroke-width="2"/>
<path id="Vector_9" d="M17.2426 6.75738L20 4" stroke="#242E49" stroke-width="2"/>
<path id="Vector_10" d="M10 11.5V12.5C10 13.3284 10.6716 14 11.5 14H12.5C13.3284 14 14 13.3284 14 12.5V11.5C14 10.6716 13.3284 10 12.5 10H11.5C10.6716 10 10 10.6716 10 11.5Z" stroke="#242E49" stroke-width="2"/>
</g>
</svg>
